<!DOCTYPE svg PUBLIC "-//W3C//DTD SVG 1.1//EN" "http://www.w3.org/Graphics/SVG/1.1/DTD/svg11.dtd">
<!-- Uploaded to: SVG Repo, www.svgrepo.com, Transformed by: SVG Repo Mixer Tools -->
<svg width="64px" height="64px" viewBox="0 0 24.00 24.00" fill="none" xmlns="http://www.w3.org/2000/svg" stroke="#981616">
<g id="SVGRepo_bgCarrier" stroke-width="0"/>
<g id="SVGRepo_tracerCarrier" stroke-linecap="round" stroke-linejoin="round" stroke="#CCCCCC" stroke-width="2.88"> <path d="M9 7.67363C6.63505 8.79709 5 11.2076 5 14C5 17.866 8.13401 21 12 21C15.866 21 19 17.866 19 14C19 11.2076 17.3649 8.79709 15 7.67363M12 4V12" stroke="#f0f0f0" stroke-width="1.5" stroke-linecap="round" stroke-linejoin="round"/> </g>
<g id="SVGRepo_iconCarrier"> <path d="M9 7.67363C6.63505 8.79709 5 11.2076 5 14C5 17.866 8.13401 21 12 21C15.866 21 19 17.866 19 14C19 11.2076 17.3649 8.79709 15 7.67363M12 4V12" stroke="#f0f0f0" stroke-width="1.968" stroke-linecap="round" stroke-linejoin="round"/> </g>
</svg>